<svg width="1600" height="732" viewBox="0 0 1600 732" fill="none" xmlns="http://www.w3.org/2000/svg">
<g clip-path="url(#clip0_50_564)">
<circle cx="988.444" cy="210.444" r="920.249" transform="rotate(38.6502 988.444 210.444)" fill="#7F4BF9"/>
<circle cx="988.444" cy="210.444" r="917.576" transform="rotate(38.6502 988.444 210.444)" stroke="white" stroke-opacity="0.2" stroke-width="5.34524"/>
<circle cx="1203.44" cy="30.4439" r="920.249" transform="rotate(38.6502 1203.44 30.4439)" fill="#8957FF"/>
<circle cx="1203.44" cy="30.4439" r="917.576" transform="rotate(38.6502 1203.44 30.4439)" stroke="white" stroke-opacity="0.2" stroke-width="5.34524"/>
<circle cx="1418.44" cy="-149.556" r="920.249" transform="rotate(38.6502 1418.44 -149.556)" fill="#9466FF"/>
<circle cx="1418.44" cy="-149.556" r="917.576" transform="rotate(38.6502 1418.44 -149.556)" stroke="white" stroke-opacity="0.2" stroke-width="5.34524"/>
<circle cx="1633.44" cy="-329.556" r="920.249" transform="rotate(38.6502 1633.44 -329.556)" fill="#996DFF"/>
<circle cx="1633.44" cy="-329.556" r="917.576" transform="rotate(38.6502 1633.44 -329.556)" stroke="white" stroke-opacity="0.2" stroke-width="5.34524"/>
<circle cx="1848.44" cy="-509.556" r="920.249" transform="rotate(38.6502 1848.44 -509.556)" fill="#9F76FE"/>
<circle cx="1848.44" cy="-509.556" r="917.576" transform="rotate(38.6502 1848.44 -509.556)" stroke="white" stroke-opacity="0.2" stroke-width="5.34524"/>
<rect width="730" height="728" fill="url(#paint0_linear_50_564)"/>
</g>
<defs>
<linearGradient id="paint0_linear_50_564" x1="0" y1="0" x2="400.932" y2="240.877" gradientUnits="userSpaceOnUse">
<stop stop-color="white"/>
<stop offset="1" stop-color="white" stop-opacity="0"/>
</linearGradient>
<clipPath id="clip0_50_564">
<rect width="3446.89" height="3306.89" fill="white" transform="translate(-305 -1803)"/>
</clipPath>
</defs>
</svg>
