<svg width="46" height="39" viewBox="0 0 46 39" fill="none" xmlns="http://www.w3.org/2000/svg">
<path d="M13.0127 38.1746C21.9032 38.1746 27.6856 33.4658 27.6856 26.3824C27.6856 20.889 24.1686 17.3984 17.8802 15.9528L13.8428 14.7418C10.3011 13.9467 8.23378 12.992 8.72086 10.5529C9.12606 8.52388 10.3383 7.37841 13.1572 7.37841C22.1187 7.37841 25.4389 10.5529 25.4389 10.5529V2.91765C25.4389 2.91765 22.2063 0 13.1572 0C4.62814 0 0 4.38865 0 11.183C0 16.6763 3.2073 19.871 9.71254 21.3888C10.1678 21.5027 10.4005 21.5612 10.4106 21.5643C11.4001 21.8705 12.7353 22.2751 14.4163 22.7781C17.7412 23.5732 18.5962 24.4171 18.5962 26.9469C18.5962 29.2599 16.193 30.5746 13.0127 30.5746C3.85106 30.5746 0 25.9399 0 25.9399V34.3992C0 34.3992 2.40826 38.1746 13.0127 38.1746Z" fill="#797691"/>
<path d="M40.5093 37.6026C43.6565 37.6026 46.0002 35.3259 46.0002 32.2456C46.0002 29.0984 43.7235 26.8887 40.5093 26.8887C37.3621 26.8887 35.0854 29.0984 35.0854 32.2456C35.0854 35.3928 37.3621 37.6026 40.5093 37.6026Z" fill="#797691"/>
</svg>
