<svg width="60" height="57" viewBox="0 0 60 57" fill="none" xmlns="http://www.w3.org/2000/svg">
<path fill-rule="evenodd" clip-rule="evenodd" d="M31.5455 0.164856C31.0463 0.39148 30.613 0.802737 30.39 1.26177C30.2013 1.64998 30.1938 1.75973 30.1354 4.97701C30.0564 9.33293 29.8657 10.7613 29.1702 12.2063C27.9729 14.6938 25.5008 15.0722 21.3662 13.4007C18.2122 12.1257 16.7681 11.3541 12.0842 8.44148C10.5472 7.48568 8.86297 6.45474 8.34145 6.15042C7.81985 5.84619 6.89555 5.28073 6.28735 4.89387C4.32368 3.64489 3.13646 3.14939 2.10762 3.14939C1.46871 3.14939 1.03966 3.30648 0.644454 3.68501C0.182052 4.12797 -0.00202473 4.55776 1.67797e-05 5.18978C0.0040998 6.46333 0.899217 7.40085 3.99066 9.36932C5.61442 10.4032 6.68281 11.0048 9.45909 12.4485C12.2458 13.8975 13.656 14.7042 14.9638 15.5969C16.754 16.8189 21.1277 20.2542 21.8308 20.9905L22.4883 21.6789L22.2816 21.8143C21.5393 22.3003 20.1491 22.4048 16.1972 22.2713C11.5134 22.1131 10.2256 22.2962 9.54305 23.2174C9.29994 23.5455 9.17005 24.538 9.28761 25.1696C9.46182 26.1058 9.95944 26.6268 11.0011 26.964C11.518 27.1313 11.8277 27.1505 15.0063 27.2123C19.4334 27.2983 20.4075 27.4164 21.6961 28.0227C22.3702 28.34 22.9468 28.8488 23.2841 29.4239C23.9807 30.6117 23.9237 32.7319 23.1304 35.1475C22.5427 36.9369 21.8755 38.3385 20.5464 40.5756C20.0404 41.4275 19.0893 43.0615 18.4329 44.207C16.9559 46.7846 16.2851 47.8959 15.1922 49.5763C13.5007 52.1773 12.8508 53.6914 12.8421 55.0512C12.8377 55.7442 12.8597 55.8561 13.059 56.1574C13.1909 56.3567 13.4667 56.5955 13.7395 56.7464C14.1345 56.965 14.2868 57.0002 14.8362 57C15.4017 56.9997 15.5356 56.9664 16.0153 56.7068C16.3129 56.5457 16.8342 56.1546 17.1738 55.8377C17.7577 55.2928 17.8571 55.1403 19.006 53.0282C19.674 51.7999 21.5613 48.4806 23.1998 45.652C26.1779 40.5112 26.1796 40.5084 27.8442 38.3176L29.5095 36.1261L29.5783 36.5325C29.6894 37.1904 29.6565 40.8205 29.5144 43.5694C29.3619 46.5195 29.3461 48.3675 29.4698 48.8123C29.608 49.3097 30.0689 49.9177 30.5162 50.1928C30.8725 50.4119 31.0289 50.4505 31.6878 50.482C33.3005 50.5591 33.8542 50.1164 34.156 48.5089C34.2008 48.2701 34.2709 45.8752 34.3117 43.1869C34.3889 38.1044 34.4682 36.8942 34.8216 35.4071C35.273 33.5074 35.9103 32.6771 37.2798 32.2041C37.7571 32.0393 38.0121 32.0095 38.909 32.0135C39.8197 32.0177 40.131 32.0585 41.0781 32.2976C43.6569 32.9489 46.5607 34.3524 50.8618 37.0263C52.6745 38.1533 53.2085 38.4319 54.0377 38.6837C55.2681 39.0572 55.9369 38.8068 56.4407 37.7841C56.6744 37.3097 56.7158 37.131 56.7212 36.5732C56.7293 35.7431 56.5304 35.1484 56.0951 34.7C55.5968 34.187 54.0179 33.1869 52.1788 32.2195C47.9169 29.9777 46.9644 29.383 45.737 28.1975C45.3051 27.7804 44.9695 27.4105 44.9912 27.3755C45.0129 27.3405 47.95 27.2864 51.5181 27.2554C55.0862 27.2243 58.1499 27.1779 58.3262 27.1522C58.7567 27.0894 59.5374 26.3773 59.8048 25.8036C60.0411 25.2965 60.0638 24.6896 59.868 24.1154C59.7059 23.6401 59.032 22.8708 58.5098 22.565L58.1435 22.3505L52.5454 22.3667C47.8404 22.3803 46.7951 22.3615 45.9922 22.2486C44.618 22.0555 43.9864 21.8839 43.1164 21.4674C42.2416 21.0485 41.6223 20.4716 41.464 19.9279C41.1114 18.7168 41.1666 16.7454 41.5911 15.3902C42.4324 12.7038 43.9626 9.5344 46.3107 5.61455C47.6558 3.36922 47.9772 2.50106 47.8042 1.58011C47.7336 1.20328 47.26 0.656866 46.7831 0.401851C46.4876 0.243741 46.3003 0.216794 45.5013 0.217049C44.466 0.217474 44.0396 0.355183 43.5292 0.853994C43.3896 0.990257 42.4968 2.5093 41.5452 4.22947C39.5116 7.90535 38.2138 9.91301 36.5561 11.9474C35.6345 13.0786 35.4304 13.3024 35.3732 13.2452C35.0868 12.9589 34.8189 9.18706 34.6955 3.70193C34.6349 1.00573 34.6324 0.995189 33.9261 0.509553C33.1707 -0.00974401 32.2302 -0.145923 31.5455 0.164856Z" fill="#00C0FA"/>
<path fill-rule="evenodd" clip-rule="evenodd" d="M31.5455 0.164856C31.0463 0.39148 30.613 0.802737 30.39 1.26177C30.2013 1.64998 30.1938 1.75973 30.1354 4.97701C30.0564 9.33293 29.8657 10.7613 29.1702 12.2063C27.9729 14.6938 25.5008 15.0722 21.3662 13.4007C18.2122 12.1257 16.7681 11.3541 12.0842 8.44148C10.5472 7.48568 8.86297 6.45474 8.34145 6.15042C7.81985 5.84619 6.89555 5.28073 6.28735 4.89387C4.32368 3.64489 3.13646 3.14939 2.10762 3.14939C1.46871 3.14939 1.03966 3.30648 0.644454 3.68501C0.182052 4.12797 -0.00202473 4.55776 1.67797e-05 5.18978C0.0040998 6.46333 0.899217 7.40085 3.99066 9.36932C5.61442 10.4032 6.68281 11.0048 9.45909 12.4485C12.2458 13.8975 13.656 14.7042 14.9638 15.5969C16.754 16.8189 21.1277 20.2542 21.8308 20.9905L22.4883 21.6789L22.2816 21.8143C21.5393 22.3003 20.1491 22.4048 16.1972 22.2713C11.5134 22.1131 10.2256 22.2962 9.54305 23.2174C9.29994 23.5455 9.17005 24.538 9.28761 25.1696C9.46182 26.1058 9.95944 26.6268 11.0011 26.964C11.518 27.1313 11.8277 27.1505 15.0063 27.2123C19.4334 27.2983 20.4075 27.4164 21.6961 28.0227C22.3702 28.34 22.9468 28.8488 23.2841 29.4239C23.9807 30.6117 23.9237 32.7319 23.1304 35.1475C22.5427 36.9369 21.8755 38.3385 20.5464 40.5756C20.0404 41.4275 19.0893 43.0615 18.4329 44.207C16.9559 46.7846 16.2851 47.8959 15.1922 49.5763C13.5007 52.1773 12.8508 53.6914 12.8421 55.0512C12.8377 55.7442 12.8597 55.8561 13.059 56.1574C13.1909 56.3567 13.4667 56.5955 13.7395 56.7464C14.1345 56.965 14.2868 57.0002 14.8362 57C15.4017 56.9997 15.5356 56.9664 16.0153 56.7068C16.3129 56.5457 16.8342 56.1546 17.1738 55.8377C17.7577 55.2928 17.8571 55.1403 19.006 53.0282C19.674 51.7999 21.5613 48.4806 23.1998 45.652C26.1779 40.5112 26.1796 40.5084 27.8442 38.3176L29.5095 36.1261L29.5783 36.5325C29.6894 37.1904 29.6565 40.8205 29.5144 43.5694C29.3619 46.5195 29.3461 48.3675 29.4698 48.8123C29.608 49.3097 30.0689 49.9177 30.5162 50.1928C30.8725 50.4119 31.0289 50.4505 31.6878 50.482C33.3005 50.5591 33.8542 50.1164 34.156 48.5089C34.2008 48.2701 34.2709 45.8752 34.3117 43.1869C34.3889 38.1044 34.4682 36.8942 34.8216 35.4071C35.273 33.5074 35.9103 32.6771 37.2798 32.2041C37.7571 32.0393 38.0121 32.0095 38.909 32.0135C39.8197 32.0177 40.131 32.0585 41.0781 32.2976C43.6569 32.9489 46.5607 34.3524 50.8618 37.0263C52.6745 38.1533 53.2085 38.4319 54.0377 38.6837C55.2681 39.0572 55.9369 38.8068 56.4407 37.7841C56.6744 37.3097 56.7158 37.131 56.7212 36.5732C56.7293 35.7431 56.5304 35.1484 56.0951 34.7C55.5968 34.187 54.0179 33.1869 52.1788 32.2195C47.9169 29.9777 46.9644 29.383 45.737 28.1975C45.3051 27.7804 44.9695 27.4105 44.9912 27.3755C45.0129 27.3405 47.95 27.2864 51.5181 27.2554C55.0862 27.2243 58.1499 27.1779 58.3262 27.1522C58.7567 27.0894 59.5374 26.3773 59.8048 25.8036C60.0411 25.2965 60.0638 24.6896 59.868 24.1154C59.7059 23.6401 59.032 22.8708 58.5098 22.565L58.1435 22.3505L52.5454 22.3667C47.8404 22.3803 46.7951 22.3615 45.9922 22.2486C44.618 22.0555 43.9864 21.8839 43.1164 21.4674C42.2416 21.0485 41.6223 20.4716 41.464 19.9279C41.1114 18.7168 41.1666 16.7454 41.5911 15.3902C42.4324 12.7038 43.9626 9.5344 46.3107 5.61455C47.6558 3.36922 47.9772 2.50106 47.8042 1.58011C47.7336 1.20328 47.26 0.656866 46.7831 0.401851C46.4876 0.243741 46.3003 0.216794 45.5013 0.217049C44.466 0.217474 44.0396 0.355183 43.5292 0.853994C43.3896 0.990257 42.4968 2.5093 41.5452 4.22947C39.5116 7.90535 38.2138 9.91301 36.5561 11.9474C35.6345 13.0786 35.4304 13.3024 35.3732 13.2452C35.0868 12.9589 34.8189 9.18706 34.6955 3.70193C34.6349 1.00573 34.6324 0.995189 33.9261 0.509553C33.1707 -0.00974401 32.2302 -0.145923 31.5455 0.164856Z" fill="url(#paint0_radial_50_258)"/>
<defs>
<radialGradient id="paint0_radial_50_258" cx="0" cy="0" r="1" gradientTransform="matrix(-2.44123 -22.5399 22.5678 -2.43822 32.4412 22.5399)" gradientUnits="userSpaceOnUse">
<stop stop-color="#6438D9"/>
<stop offset="1" stop-color="#9C7DEA"/>
</radialGradient>
</defs>
</svg>
