<svg width="20" height="20" viewBox="0 0 20 20" fill="none" xmlns="http://www.w3.org/2000/svg">
<path d="M17.0834 9.41601V5.86602C17.0834 2.50769 16.3001 1.66602 13.1501 1.66602H6.85008C3.70008 1.66602 2.91675 2.50769 2.91675 5.86602V15.2493C2.91675 17.466 4.13342 17.991 5.60842 16.4077L5.61674 16.3993C6.30007 15.6743 7.34174 15.7327 7.93341 16.5243L8.77508 17.6493" stroke="#DAD4F3" stroke-width="1.25" stroke-linecap="round" stroke-linejoin="round"/>
<path d="M15.1667 17.8333C16.6394 17.8333 17.8333 16.6394 17.8333 15.1667C17.8333 13.6939 16.6394 12.5 15.1667 12.5C13.6939 12.5 12.5 13.6939 12.5 15.1667C12.5 16.6394 13.6939 17.8333 15.1667 17.8333Z" stroke="#DAD4F3" stroke-width="1.25" stroke-linecap="round" stroke-linejoin="round"/>
<path d="M18.3333 18.3333L17.5 17.5" stroke="#DAD4F3" stroke-width="1.25" stroke-linecap="round" stroke-linejoin="round"/>
<path d="M6.66675 5.83398H13.3334" stroke="#DAD4F3" stroke-width="1.25" stroke-linecap="round" stroke-linejoin="round"/>
<path d="M7.5 9.16602H12.5" stroke="white" stroke-width="1.25" stroke-linecap="round" stroke-linejoin="round"/>
</svg>
