<svg width="20" height="20" viewBox="0 0 20 20" fill="none" xmlns="http://www.w3.org/2000/svg">
<path d="M15.0328 11.2923C14.6828 11.634 14.4828 12.1256 14.5328 12.6506C14.6078 13.5506 15.4328 14.209 16.3328 14.209H17.9161V15.2006C17.9161 16.9256 16.5078 18.334 14.7828 18.334H5.2161C3.4911 18.334 2.08276 16.9256 2.08276 15.2006V9.59233C2.08276 7.86733 3.4911 6.45898 5.2161 6.45898H14.7828C16.5078 6.45898 17.9161 7.86733 17.9161 9.59233V10.7923H16.2328C15.7661 10.7923 15.3411 10.9756 15.0328 11.2923Z" stroke="#DAD4F3" stroke-width="1.25" stroke-linecap="round" stroke-linejoin="round"/>
<path d="M2.08276 10.3421V6.53379C2.08276 5.54212 2.6911 4.65875 3.6161 4.30875L10.2328 1.80875C11.2661 1.41708 12.3744 2.18377 12.3744 3.29211V6.45876" stroke="#DAD4F3" stroke-width="1.25" stroke-linecap="round" stroke-linejoin="round"/>
<path d="M18.7989 11.641V13.3577C18.7989 13.816 18.4323 14.191 17.9656 14.2077H16.3323C15.4323 14.2077 14.6073 13.5493 14.5323 12.6493C14.4823 12.1243 14.6823 11.6327 15.0323 11.291C15.3406 10.9743 15.7656 10.791 16.2323 10.791H17.9656C18.4323 10.8077 18.7989 11.1826 18.7989 11.641Z" stroke="#DAD4F3" stroke-width="1.25" stroke-linecap="round" stroke-linejoin="round"/>
<path d="M5.83325 10H11.6666" stroke="#DAD4F3" stroke-width="1.25" stroke-linecap="round" stroke-linejoin="round"/>
</svg>
