<svg width="20" height="20" viewBox="0 0 20 20" fill="none" xmlns="http://www.w3.org/2000/svg">
<path d="M9.5504 11.4411C10.8437 11.4411 11.8921 10.3927 11.8921 9.09948C11.8921 7.80621 10.8437 6.75781 9.5504 6.75781C8.25714 6.75781 7.20874 7.80621 7.20874 9.09948C7.20874 10.3927 8.25714 11.4411 9.5504 11.4411Z" stroke="white" stroke-width="1.25" stroke-linecap="round" stroke-linejoin="round"/>
<path d="M13.8746 16.8336C13.8746 14.892 11.9413 13.3086 9.54961 13.3086C7.15794 13.3086 5.22461 14.8836 5.22461 16.8336" stroke="white" stroke-width="1.25" stroke-linecap="round" stroke-linejoin="round"/>
<path d="M17.5001 10.4167C17.5001 14.7917 13.9584 18.3333 9.58341 18.3333C5.20841 18.3333 1.66675 14.7917 1.66675 10.4167C1.66675 6.04167 5.20841 2.5 9.58341 2.5C10.6751 2.5 11.7167 2.71666 12.6667 3.11666C12.5584 3.44999 12.5001 3.8 12.5001 4.16667C12.5001 4.79167 12.6751 5.38333 12.9834 5.88333C13.1501 6.16666 13.3667 6.42498 13.6167 6.64164C14.2001 7.17498 14.9751 7.5 15.8334 7.5C16.2001 7.5 16.5501 7.44165 16.8751 7.32498C17.2751 8.27498 17.5001 9.325 17.5001 10.4167Z" stroke="white" stroke-width="1.25" stroke-linecap="round" stroke-linejoin="round"/>
<path d="M19.1667 4.16732C19.1667 4.43398 19.1333 4.69231 19.0667 4.94231C18.9917 5.27564 18.8583 5.60065 18.6833 5.88398C18.2833 6.55898 17.6417 7.08397 16.875 7.32563C16.55 7.4423 16.2 7.50065 15.8333 7.50065C14.975 7.50065 14.2 7.17563 13.6167 6.64229C13.3667 6.42563 13.15 6.16732 12.9833 5.88398C12.675 5.38398 12.5 4.79232 12.5 4.16732C12.5 3.80065 12.5583 3.45064 12.6667 3.11731C12.825 2.63398 13.0917 2.20067 13.4417 1.84234C14.05 1.21734 14.9 0.833984 15.8333 0.833984C16.8167 0.833984 17.7083 1.259 18.3083 1.94233C18.8417 2.534 19.1667 3.31732 19.1667 4.16732Z" stroke="white" stroke-width="1.25" stroke-miterlimit="10" stroke-linecap="round" stroke-linejoin="round"/>
<path d="M17.0744 4.15039H14.5911" stroke="white" stroke-width="1.25" stroke-miterlimit="10" stroke-linecap="round" stroke-linejoin="round"/>
<path d="M15.833 2.93359V5.42525" stroke="white" stroke-width="1.25" stroke-miterlimit="10" stroke-linecap="round" stroke-linejoin="round"/>
</svg>
