<svg width="20" height="20" viewBox="0 0 20 20" fill="none" xmlns="http://www.w3.org/2000/svg">
<path d="M10.1339 9.05768C10.0505 9.04935 9.95054 9.04935 9.85887 9.05768C7.87554 8.99102 6.30054 7.36602 6.30054 5.36602C6.30054 3.32435 7.95054 1.66602 10.0005 1.66602C12.0422 1.66602 13.7005 3.32435 13.7005 5.36602C13.6922 7.36602 12.1172 8.99102 10.1339 9.05768Z" stroke="#DAD4F3" stroke-width="1.25" stroke-linecap="round" stroke-linejoin="round"/>
<path d="M5.96733 12.134C3.95067 13.484 3.95067 15.684 5.96733 17.0257C8.259 18.559 12.0173 18.559 14.309 17.0257C16.3257 15.6757 16.3257 13.4757 14.309 12.134C12.0257 10.609 8.26733 10.609 5.96733 12.134Z" stroke="#DAD4F3" stroke-width="1.25" stroke-linecap="round" stroke-linejoin="round"/>
</svg>
