<svg width="50" height="50" viewBox="0 0 50 50" fill="none" xmlns="http://www.w3.org/2000/svg">
<rect width="50" height="50" rx="15" fill="#EFEBFF"/>
<path d="M32.3009 20.9195V26.0695C32.3009 29.1495 30.5409 30.4695 27.9009 30.4695H19.1109C18.6609 30.4695 18.2309 30.4295 17.8309 30.3395C17.5809 30.2995 17.3409 30.2295 17.1209 30.1495C15.6209 29.5895 14.7109 28.2895 14.7109 26.0695V20.9195C14.7109 17.8395 16.4709 16.5195 19.1109 16.5195H27.9009C30.1409 16.5195 31.7509 17.4695 32.1809 19.6395C32.2509 20.0395 32.3009 20.4495 32.3009 20.9195Z" stroke="#6438D9" stroke-width="1.5" stroke-miterlimit="10" stroke-linecap="round" stroke-linejoin="round"/>
<path d="M35.302 23.9196V29.0696C35.302 32.1496 33.542 33.4696 30.902 33.4696H22.112C21.372 33.4696 20.702 33.3697 20.122 33.1497C18.932 32.7097 18.122 31.7997 17.832 30.3397C18.232 30.4297 18.662 30.4696 19.112 30.4696H27.902C30.542 30.4696 32.302 29.1496 32.302 26.0696V20.9196C32.302 20.4496 32.262 20.0296 32.182 19.6396C34.082 20.0396 35.302 21.3796 35.302 23.9196Z" stroke="#6438D9" stroke-width="1.5" stroke-miterlimit="10" stroke-linecap="round" stroke-linejoin="round"/>
<path d="M23.4994 26.1394C24.9574 26.1394 26.1394 24.9574 26.1394 23.4994C26.1394 22.0414 24.9574 20.8594 23.4994 20.8594C22.0414 20.8594 20.8594 22.0414 20.8594 23.4994C20.8594 24.9574 22.0414 26.1394 23.4994 26.1394Z" stroke="#6438D9" stroke-width="1.5" stroke-miterlimit="10" stroke-linecap="round" stroke-linejoin="round"/>
<path d="M17.7812 21.2998V25.6998" stroke="#6438D9" stroke-width="1.5" stroke-miterlimit="10" stroke-linecap="round" stroke-linejoin="round"/>
<path d="M29.2227 21.2998V25.6998" stroke="#6438D9" stroke-width="1.5" stroke-miterlimit="10" stroke-linecap="round" stroke-linejoin="round"/>
</svg>
