<svg width="24" height="24" viewBox="0 0 24 24" fill="none" xmlns="http://www.w3.org/2000/svg">
<path d="M11.4604 13.7298C13.0123 13.7298 14.2704 12.4718 14.2704 10.9198C14.2704 9.36793 13.0123 8.10985 11.4604 8.10985C9.90847 8.10985 8.65039 9.36793 8.65039 10.9198C8.65039 12.4718 9.90847 13.7298 11.4604 13.7298Z" stroke="white" stroke-width="1.25" stroke-linecap="round" stroke-linejoin="round"/>
<path d="M16.6495 20.1997C16.6495 17.8697 14.3295 15.9697 11.4595 15.9697C8.58953 15.9697 6.26953 17.8597 6.26953 20.1997" stroke="white" stroke-width="1.25" stroke-linecap="round" stroke-linejoin="round"/>
<path d="M21 12.5C21 17.75 16.75 22 11.5 22C6.25 22 2 17.75 2 12.5C2 7.25 6.25 3 11.5 3C12.81 3 14.06 3.25999 15.2 3.73999C15.07 4.13999 15 4.56 15 5C15 5.75 15.21 6.46 15.58 7.06C15.78 7.4 16.04 7.70997 16.34 7.96997C17.04 8.60997 17.97 9 19 9C19.44 9 19.86 8.92998 20.25 8.78998C20.73 9.92998 21 11.19 21 12.5Z" stroke="white" stroke-width="1.25" stroke-linecap="round" stroke-linejoin="round"/>
<path d="M23 4.99997C23 5.31997 22.96 5.62996 22.88 5.92996C22.79 6.32996 22.63 6.71997 22.42 7.05997C21.94 7.86997 21.17 8.49995 20.25 8.78995C19.86 8.92995 19.44 8.99997 19 8.99997C17.97 8.99997 17.04 8.60994 16.34 7.96994C16.04 7.70994 15.78 7.39997 15.58 7.05997C15.21 6.45997 15 5.74997 15 4.99997C15 4.55997 15.07 4.13996 15.2 3.73996C15.39 3.15996 15.71 2.63999 16.13 2.20999C16.86 1.45999 17.88 0.999969 19 0.999969C20.18 0.999969 21.25 1.50999 21.97 2.32999C22.61 3.03999 23 3.97997 23 4.99997Z" stroke="white" stroke-width="1.25" stroke-miterlimit="10" stroke-linecap="round" stroke-linejoin="round"/>
<path d="M20.4898 4.97995H17.5098" stroke="white" stroke-width="1.25" stroke-miterlimit="10" stroke-linecap="round" stroke-linejoin="round"/>
<path d="M19 3.52002V6.51001" stroke="white" stroke-width="1.25" stroke-miterlimit="10" stroke-linecap="round" stroke-linejoin="round"/>
</svg>
