<svg width="24" height="24" viewBox="0 0 24 24" fill="none" xmlns="http://www.w3.org/2000/svg">
<path d="M2.97461 13.1504C4.98059 13.3888 6.84804 14.2951 8.27646 15.7235C9.70488 17.152 10.6112 19.0194 10.8496 21.0254C11.844 20.4521 12.6758 19.6347 13.2664 18.6504C13.8569 17.6662 14.1867 16.5476 14.2246 15.4004C16.1136 14.7359 17.7631 13.5261 18.9646 11.9242C20.1661 10.3222 20.8656 8.3999 20.9746 6.40039C20.9746 5.50528 20.619 4.64684 19.9861 4.01391C19.3532 3.38097 18.4947 3.02539 17.5996 3.02539C15.6001 3.13441 13.6778 3.83389 12.0758 5.03537C10.4739 6.23686 9.26413 7.88639 8.59961 9.77539C7.45241 9.81328 6.33381 10.1431 5.34956 10.7336C4.3653 11.3242 3.5479 12.156 2.97461 13.1504Z" stroke="white" stroke-width="1.5" stroke-linecap="round" stroke-linejoin="round"/>
<path d="M6.20611 14.5986C5.11218 15.2203 4.22761 16.1566 3.6658 17.2876C3.104 18.4186 2.89056 19.6927 3.05285 20.9466C4.29856 21.1099 5.56435 20.8951 6.68796 20.3296C7.81156 19.7641 8.74179 18.8737 9.35938 17.7726" stroke="white" stroke-width="1.5" stroke-linecap="round" stroke-linejoin="round"/>
<path d="M13.9746 9.02539C13.9746 9.29061 14.08 9.54496 14.2675 9.7325C14.455 9.92003 14.7094 10.0254 14.9746 10.0254C15.2398 10.0254 15.4942 9.92003 15.6817 9.7325C15.8693 9.54496 15.9746 9.29061 15.9746 9.02539C15.9746 8.76017 15.8693 8.50582 15.6817 8.31828C15.4942 8.13075 15.2398 8.02539 14.9746 8.02539C14.7094 8.02539 14.455 8.13075 14.2675 8.31828C14.08 8.50582 13.9746 8.76017 13.9746 9.02539Z" stroke="white" stroke-width="1.5" stroke-linecap="round" stroke-linejoin="round"/>
</svg>
