<svg width="800" height="230" xmlns="http://www.w3.org/2000/svg">

 <g>
  <title>Layer 1</title>
  <g>
   <g>
    <path d="m51.02499,172.295c2.32,-2.76 4,-5.25 5.06,-7.46c1.06,-2.22 1.58,-4.71 1.58,-7.48l0,-84.71c0,-2.76 -0.52,-5.26 -1.58,-7.48c-1.06,-2.22 -2.74,-4.7 -5.06,-7.48l0,-0.82l18.93,0l43.51,99.33l42.69,-99.33l16.95,0l0,0.82c-1.33,1.88 -2.5,4.16 -3.49,6.81c-1,2.66 -1.49,5.37 -1.49,8.14l0,84.71c0,2.76 0.49,5.48 1.49,8.14c1,2.66 2.16,4.92 3.49,6.8l0,0.84l-22.43,0l0,-0.84c1.33,-1.88 2.5,-4.14 3.49,-6.8c1,-2.66 1.49,-5.37 1.49,-8.14l0,-89.68l-45.67,105.47l-2.5,0l-45.67,-103.81l0,88.03c0,2.76 0.52,5.26 1.58,7.48c1.04,2.22 2.74,4.7 5.06,7.46l0,0.84l-17.43,0l0,-0.84z"/>
    <path d="m246.03499,172.295c1.32,-1.88 2.48,-4.14 3.48,-6.8c1,-2.66 1.5,-5.37 1.5,-8.14l0,-84.71c0,-2.76 -0.5,-5.48 -1.5,-8.14c-1,-2.66 -2.16,-4.94 -3.48,-6.81l0,-0.82l21.75,0l0,0.82c-1.32,1.88 -2.5,4.16 -3.48,6.81c-1,2.66 -1.5,5.37 -1.5,8.14l0,84.71c0,2.76 0.5,5.48 1.5,8.14c0.99,2.66 2.16,4.92 3.48,6.8l0,0.84l-21.75,0l0,-0.84z"/>
    <path d="m552.80499,172.295c1.32,-1.88 2.48,-4.14 3.48,-6.8c1,-2.66 1.5,-5.37 1.5,-8.14l0,-84.71c0,-2.76 -0.5,-5.48 -1.5,-8.14c-1,-2.66 -2.16,-4.94 -3.48,-6.81l0,-0.82l21.75,0l0,0.82c-1.32,1.88 -2.5,4.16 -3.48,6.81c-1,2.66 -1.5,5.37 -1.5,8.14l0,84.71c0,2.76 0.5,5.48 1.5,8.14c0.99,2.66 2.16,4.92 3.48,6.8l0,0.84l-21.75,0l0,-0.84z"/>
    <path d="m687.52499,172.295c1.32,-1.88 2.48,-4.14 3.48,-6.8c1,-2.66 1.5,-5.37 1.5,-8.14l0,-97.17l-12.46,0c-5.64,0 -10.33,0.9 -14.04,2.74c-3.71,1.82 -6.72,4.32 -9.06,7.48c-2.32,3.16 -4.6,7.22 -6.8,12.2l-1.66,0l3.32,-25.74l93.85,0l3.32,25.74l-1.66,0c-2.22,-4.98 -4.49,-9.04 -6.81,-12.2c-2.32,-3.16 -5.34,-5.65 -9.06,-7.48c-3.7,-1.83 -8.38,-2.74 -14.03,-2.74l-12.46,0l0,97.17c0,2.76 0.5,5.48 1.5,8.14c1,2.66 2.16,4.92 3.48,6.8l0,0.84l-22.42,0l0,-0.84l0.01,0z"/>
    <polygon points="460.93499755859375,56.87499237060547 359.66497802734375,56.87499237060547 410.30499267578125,107.5050277709961 "/>
    <polygon points="402.80499267578125,115.0050277709961 352.16497802734375,64.37499237060547 352.16497802734375,165.63497161865234 "/>
    <polygon points="410.30499267578125,122.49498748779297 359.66497802734375,173.13497161865234 460.93499755859375,173.13497161865234 "/>
    <polygon points="417.79498291015625,115.0050277709961 468.4350280761719,165.63497161865234 468.4350280761719,64.36499786376953 "/>
   </g>
  </g>
 </g>
</svg>