<svg width="24" height="24" viewBox="0 0 24 24" fill="none" xmlns="http://www.w3.org/2000/svg">
<path d="M4 19L7.02064 14.469C7.58014 13.6298 8.67701 13.3385 9.57917 13.7896L10.5539 14.2769C11.3974 14.6987 12.4209 14.4739 13.01 13.7375L14.6041 11.7449C15.3488 10.8141 16.7372 10.7372 17.5801 11.5801L19.4142 13.4142C19.7893 13.7893 20 14.298 20 14.8284V19H4Z" stroke="white" stroke-width="1.5" stroke-linecap="round" stroke-linejoin="round"/>
<path d="M4 12L5.99851 9.33532C6.57845 8.56206 7.62841 8.3142 8.49294 8.74647L9.5832 9.2916C10.4133 9.70666 11.4199 9.4961 12.0141 8.78312L14.598 5.68245C15.3509 4.77898 16.717 4.71701 17.5486 5.54861L20 8" stroke="white" stroke-width="1.5" stroke-linecap="round" stroke-linejoin="round"/>
</svg>
