<svg width="24" height="24" viewBox="0 0 24 24" fill="none" xmlns="http://www.w3.org/2000/svg">
<path d="M2.97461 13.1501C4.98059 13.3885 6.84804 14.2949 8.27646 15.7233C9.70488 17.1517 10.6112 19.0192 10.8496 21.0251C11.844 20.4519 12.6758 19.6345 13.2664 18.6502C13.8569 17.6659 14.1867 16.5474 14.2246 15.4001C16.1136 14.7356 17.7631 13.5259 18.9646 11.9239C20.1661 10.3219 20.8656 8.39965 20.9746 6.40015C20.9746 5.50504 20.619 4.6466 19.9861 4.01366C19.3532 3.38073 18.4947 3.02515 17.5996 3.02515C15.6001 3.13417 13.6778 3.83364 12.0758 5.03513C10.4739 6.23661 9.26413 7.88615 8.59961 9.77515C7.45241 9.81303 6.33381 10.1428 5.34956 10.7334C4.3653 11.3239 3.5479 12.1557 2.97461 13.1501Z" stroke="white" stroke-width="1.5" stroke-linecap="round" stroke-linejoin="round"/>
<path d="M6.20611 14.5989C5.11218 15.2205 4.22761 16.1568 3.6658 17.2878C3.104 18.4188 2.89056 19.6929 3.05285 20.9468C4.29856 21.1102 5.56435 20.8953 6.68796 20.3298C7.81156 19.7643 8.74179 18.874 9.35938 17.7728" stroke="white" stroke-width="1.5" stroke-linecap="round" stroke-linejoin="round"/>
<path d="M13.9746 9.02515C13.9746 9.29036 14.08 9.54472 14.2675 9.73225C14.455 9.91979 14.7094 10.0251 14.9746 10.0251C15.2398 10.0251 15.4942 9.91979 15.6817 9.73225C15.8693 9.54472 15.9746 9.29036 15.9746 9.02515C15.9746 8.75993 15.8693 8.50558 15.6817 8.31804C15.4942 8.1305 15.2398 8.02515 14.9746 8.02515C14.7094 8.02515 14.455 8.1305 14.2675 8.31804C14.08 8.50558 13.9746 8.75993 13.9746 9.02515Z" stroke="white" stroke-width="1.5" stroke-linecap="round" stroke-linejoin="round"/>
</svg>
