<svg width="20" height="20" viewBox="0 0 20 20" fill="none" xmlns="http://www.w3.org/2000/svg">
<path d="M7.49935 18.3337H12.4993C16.666 18.3337 18.3327 16.667 18.3327 12.5003V7.50033C18.3327 3.33366 16.666 1.66699 12.4993 1.66699H7.49935C3.33268 1.66699 1.66602 3.33366 1.66602 7.50033V12.5003C1.66602 16.667 3.33268 18.3337 7.49935 18.3337Z" stroke="#DAD4F3" stroke-width="1.5" stroke-linecap="round" stroke-linejoin="round"/>
<path d="M12.9746 15.417V12.167" stroke="#DAD4F3" stroke-width="1.5" stroke-miterlimit="10" stroke-linecap="round" stroke-linejoin="round"/>
<path d="M12.9746 6.20801V4.58301" stroke="#DAD4F3" stroke-width="1.5" stroke-miterlimit="10" stroke-linecap="round" stroke-linejoin="round"/>
<path d="M12.9753 10.5413C14.1719 10.5413 15.1419 9.57129 15.1419 8.37467C15.1419 7.17806 14.1719 6.20801 12.9753 6.20801C11.7786 6.20801 10.8086 7.17806 10.8086 8.37467C10.8086 9.57129 11.7786 10.5413 12.9753 10.5413Z" stroke="#DAD4F3" stroke-width="1.5" stroke-miterlimit="10" stroke-linecap="round" stroke-linejoin="round"/>
<path d="M7.02539 15.417V13.792" stroke="white" stroke-width="1.5" stroke-miterlimit="10" stroke-linecap="round" stroke-linejoin="round"/>
<path d="M7.02539 7.83301V4.58301" stroke="white" stroke-width="1.5" stroke-miterlimit="10" stroke-linecap="round" stroke-linejoin="round"/>
<path d="M7.02409 13.7913C8.22071 13.7913 9.19075 12.8213 9.19075 11.6247C9.19075 10.4281 8.22071 9.45801 7.02409 9.45801C5.82747 9.45801 4.85742 10.4281 4.85742 11.6247C4.85742 12.8213 5.82747 13.7913 7.02409 13.7913Z" stroke="white" stroke-width="1.5" stroke-miterlimit="10" stroke-linecap="round" stroke-linejoin="round"/>
</svg>
